<?xml version="1.0" standalone="no"?><!DOCTYPE svg PUBLIC "-//W3C//DTD SVG 1.1//EN" "http://www.w3.org/Graphics/SVG/1.1/DTD/svg11.dtd"><svg t="1664446356278" class="icon" viewBox="0 0 1024 1024" version="1.1" xmlns="http://www.w3.org/2000/svg" p-id="6949" xmlns:xlink="http://www.w3.org/1999/xlink" width="16" height="16"><path d="M827 626H197c-44.7 0-81-36.3-81-81V234c0-44.7 36.3-81 81-81h630c44.7 0 81 36.3 81 81v311c0 44.7-36.3 81-81 81zM197 187c-25.9 0-47 21.1-47 47v311c0 25.9 21.1 47 47 47h630c25.9 0 47-21.1 47-47V234c0-25.9-21.1-47-47-47H197z" fill="#1296db" p-id="6950"></path><path d="M867 870.6H166.6c-3.6 0-7.3-0.3-10.9-0.9-18-2.9-33.7-12.7-44.3-27.4-10.6-14.7-14.9-32.7-11.9-50.7l30.1-185.1c1.5-9.3 10.2-15.6 19.5-14 9.3 1.5 15.6 10.2 14 19.5L133 797.1c-1.5 9 0.7 18 6 25.3 5.3 7.4 13.2 12.2 22.1 13.7 1.8 0.3 3.6 0.4 5.5 0.4H867c18.7 0 34-15.3 34-34 0-2.5-0.3-5-0.8-7.4L859.6 613c-2-9.2 3.7-18.2 12.9-20.3 9.2-2 18.2 3.7 20.3 12.9l40.6 182.2c1.1 4.9 1.6 9.8 1.6 14.8 0 37.5-30.5 68-68 68zM796 573H229c-25.9 0-47-21.1-47-47V253c0-25.9 21.1-47 47-47h567c25.9 0 47 21.1 47 47v273c0 25.9-21.1 47-47 47zM229 240c-7.2 0-13 5.8-13 13v273c0 7.2 5.8 13 13 13h567c7.2 0 13-5.8 13-13V253c0-7.2-5.8-13-13-13H229z" fill="#1296db" p-id="6951"></path><path d="M176 648h43v42h-43zM262 648h43v42h-43zM348 648h43v42h-43zM434 648h43v42h-43zM520 648h43v42h-43zM606 648h43v42h-43zM692 648h43v42h-43zM784 648h67v42h-67zM176 708h67v42h-67zM284 708h43v42h-43zM370 708h43v42h-43zM456 708h43v42h-43zM542 708h43v42h-43zM628 708h43v42h-43zM714 708h43v42h-43zM784 708h67v42h-67zM176 768h86v42h-86zM306 768h43v42h-43zM392 768h129v42H392zM564 768h43v42h-43zM650 768h43v42h-43zM736 768h43v42h-43zM806 768h43v42h-43z" fill="#1296db" p-id="6952"></path></svg>